<svg width="11" height="9" viewBox="0 0 11 9" fill="none" xmlns="http://www.w3.org/2000/svg">
<path d="M0.479004 4.6167C0.479004 4.78499 0.541667 4.9318 0.666992 5.05713L4.21191 8.59131C4.33724 8.71305 4.47868 8.77393 4.63623 8.77393C4.80094 8.77393 4.9388 8.72021 5.0498 8.61279C5.15723 8.50537 5.21094 8.37109 5.21094 8.20996C5.21094 8.1276 5.19661 8.05062 5.16797 7.979C5.13574 7.90739 5.09277 7.84473 5.03906 7.79102L3.83594 6.57715L1.83252 4.75098L1.64453 5.09473L3.5083 5.20215H10.0342C10.2132 5.20215 10.3582 5.14844 10.4692 5.04102C10.5767 4.93001 10.6304 4.78857 10.6304 4.6167C10.6304 4.44124 10.5767 4.2998 10.4692 4.19238C10.3582 4.08138 10.2132 4.02588 10.0342 4.02588H3.5083L1.64453 4.13867L1.83252 4.48779L3.83594 2.65625L5.03906 1.43701C5.09277 1.3833 5.13574 1.32243 5.16797 1.25439C5.19661 1.18278 5.21094 1.104 5.21094 1.01807C5.21094 0.856934 5.15723 0.722656 5.0498 0.615234C4.9388 0.507812 4.80094 0.454102 4.63623 0.454102C4.55745 0.454102 4.48226 0.470215 4.41064 0.502441C4.33903 0.534668 4.271 0.583008 4.20654 0.647461L0.666992 4.17627C0.541667 4.3016 0.479004 4.4484 0.479004 4.6167Z" fill="#78716C"/>
</svg>
